<mxfile host="app.diagrams.net" modified="2024-04-26T05:13:15.143Z" agent="Mozilla/5.0 (Windows NT 10.0; Win64; x64) AppleWebKit/537.36 (KHTML, like Gecko) Chrome/124.0.0.0 Safari/537.36" version="24.3.0" etag="iJuYmwzIT0VVo-6Fl7n8" type="github">
  <diagram name="Page-1" id="hu3-Fn8BK387uAan2zAv">
    <mxGraphModel>
      <root>
        <mxCell id="0" />
        <mxCell id="1" parent="0" />
      </root>
    </mxGraphModel>
  </diagram>
</mxfile>
